<svg viewBox="0 0 850 597" xmlns="http://www.w3.org/2000/svg">
<rect width="850" height="597" fill="#ffffff"/>
<circle cx="415" cy="300" r="268" fill="none" stroke="#9db4cf" stroke-width="2"/>
<circle cx="415" cy="300" r="261" fill="none" stroke="#9db4cf" stroke-width="1" opacity="0.6"/>
<line x1="415.0" y1="38.0" x2="415.0" y2="54.0" stroke="#bf8f00" stroke-width="2.2"/>
<line x1="442.4" y1="39.4" x2="441.6" y2="47.4" stroke="#9db4cf" stroke-width="1"/>
<line x1="469.5" y1="43.7" x2="467.8" y2="51.6" stroke="#9db4cf" stroke-width="1"/>
<line x1="496.0" y1="50.8" x2="493.5" y2="58.4" stroke="#9db4cf" stroke-width="1"/>
<line x1="521.6" y1="60.7" x2="518.3" y2="68.0" stroke="#9db4cf" stroke-width="1"/>
<line x1="546.0" y1="73.1" x2="538.0" y2="87.0" stroke="#bf8f00" stroke-width="2.2"/>
<line x1="569.0" y1="88.0" x2="564.3" y2="94.5" stroke="#9db4cf" stroke-width="1"/>
<line x1="590.3" y1="105.3" x2="585.0" y2="111.2" stroke="#9db4cf" stroke-width="1"/>
<line x1="609.7" y1="124.7" x2="603.8" y2="130.0" stroke="#9db4cf" stroke-width="1"/>
<line x1="627.0" y1="146.0" x2="620.5" y2="150.7" stroke="#9db4cf" stroke-width="1"/>
<line x1="641.9" y1="169.0" x2="628.0" y2="177.0" stroke="#bf8f00" stroke-width="2.2"/>
<line x1="654.3" y1="193.4" x2="647.0" y2="196.7" stroke="#9db4cf" stroke-width="1"/>
<line x1="664.2" y1="219.0" x2="656.6" y2="221.5" stroke="#9db4cf" stroke-width="1"/>
<line x1="671.3" y1="245.5" x2="663.4" y2="247.2" stroke="#9db4cf" stroke-width="1"/>
<line x1="675.6" y1="272.6" x2="667.6" y2="273.4" stroke="#9db4cf" stroke-width="1"/>
<line x1="677.0" y1="300.0" x2="661.0" y2="300.0" stroke="#bf8f00" stroke-width="2.2"/>
<line x1="675.6" y1="327.4" x2="667.6" y2="326.6" stroke="#9db4cf" stroke-width="1"/>
<line x1="671.3" y1="354.5" x2="663.4" y2="352.8" stroke="#9db4cf" stroke-width="1"/>
<line x1="664.2" y1="381.0" x2="656.6" y2="378.5" stroke="#9db4cf" stroke-width="1"/>
<line x1="654.3" y1="406.6" x2="647.0" y2="403.3" stroke="#9db4cf" stroke-width="1"/>
<line x1="641.9" y1="431.0" x2="628.0" y2="423.0" stroke="#bf8f00" stroke-width="2.2"/>
<line x1="627.0" y1="454.0" x2="620.5" y2="449.3" stroke="#9db4cf" stroke-width="1"/>
<line x1="609.7" y1="475.3" x2="603.8" y2="470.0" stroke="#9db4cf" stroke-width="1"/>
<line x1="590.3" y1="494.7" x2="585.0" y2="488.8" stroke="#9db4cf" stroke-width="1"/>
<line x1="569.0" y1="512.0" x2="564.3" y2="505.5" stroke="#9db4cf" stroke-width="1"/>
<line x1="546.0" y1="526.9" x2="538.0" y2="513.0" stroke="#bf8f00" stroke-width="2.2"/>
<line x1="521.6" y1="539.3" x2="518.3" y2="532.0" stroke="#9db4cf" stroke-width="1"/>
<line x1="496.0" y1="549.2" x2="493.5" y2="541.6" stroke="#9db4cf" stroke-width="1"/>
<line x1="469.5" y1="556.3" x2="467.8" y2="548.4" stroke="#9db4cf" stroke-width="1"/>
<line x1="442.4" y1="560.6" x2="441.6" y2="552.6" stroke="#9db4cf" stroke-width="1"/>
<line x1="415.0" y1="562.0" x2="415.0" y2="546.0" stroke="#bf8f00" stroke-width="2.2"/>
<line x1="387.6" y1="560.6" x2="388.4" y2="552.6" stroke="#9db4cf" stroke-width="1"/>
<line x1="360.5" y1="556.3" x2="362.2" y2="548.4" stroke="#9db4cf" stroke-width="1"/>
<line x1="334.0" y1="549.2" x2="336.5" y2="541.6" stroke="#9db4cf" stroke-width="1"/>
<line x1="308.4" y1="539.3" x2="311.7" y2="532.0" stroke="#9db4cf" stroke-width="1"/>
<line x1="284.0" y1="526.9" x2="292.0" y2="513.0" stroke="#bf8f00" stroke-width="2.2"/>
<line x1="261.0" y1="512.0" x2="265.7" y2="505.5" stroke="#9db4cf" stroke-width="1"/>
<line x1="239.7" y1="494.7" x2="245.0" y2="488.8" stroke="#9db4cf" stroke-width="1"/>
<line x1="220.3" y1="475.3" x2="226.2" y2="470.0" stroke="#9db4cf" stroke-width="1"/>
<line x1="203.0" y1="454.0" x2="209.5" y2="449.3" stroke="#9db4cf" stroke-width="1"/>
<line x1="188.1" y1="431.0" x2="202.0" y2="423.0" stroke="#bf8f00" stroke-width="2.2"/>
<line x1="175.7" y1="406.6" x2="183.0" y2="403.3" stroke="#9db4cf" stroke-width="1"/>
<line x1="165.8" y1="381.0" x2="173.4" y2="378.5" stroke="#9db4cf" stroke-width="1"/>
<line x1="158.7" y1="354.5" x2="166.6" y2="352.8" stroke="#9db4cf" stroke-width="1"/>
<line x1="154.4" y1="327.4" x2="162.4" y2="326.6" stroke="#9db4cf" stroke-width="1"/>
<line x1="153.0" y1="300.0" x2="169.0" y2="300.0" stroke="#bf8f00" stroke-width="2.2"/>
<line x1="154.4" y1="272.6" x2="162.4" y2="273.4" stroke="#9db4cf" stroke-width="1"/>
<line x1="158.7" y1="245.5" x2="166.6" y2="247.2" stroke="#9db4cf" stroke-width="1"/>
<line x1="165.8" y1="219.0" x2="173.4" y2="221.5" stroke="#9db4cf" stroke-width="1"/>
<line x1="175.7" y1="193.4" x2="183.0" y2="196.7" stroke="#9db4cf" stroke-width="1"/>
<line x1="188.1" y1="169.0" x2="202.0" y2="177.0" stroke="#bf8f00" stroke-width="2.2"/>
<line x1="203.0" y1="146.0" x2="209.5" y2="150.7" stroke="#9db4cf" stroke-width="1"/>
<line x1="220.3" y1="124.7" x2="226.2" y2="130.0" stroke="#9db4cf" stroke-width="1"/>
<line x1="239.7" y1="105.3" x2="245.0" y2="111.2" stroke="#9db4cf" stroke-width="1"/>
<line x1="261.0" y1="88.0" x2="265.7" y2="94.5" stroke="#9db4cf" stroke-width="1"/>
<line x1="284.0" y1="73.1" x2="292.0" y2="87.0" stroke="#bf8f00" stroke-width="2.2"/>
<line x1="308.4" y1="60.7" x2="311.7" y2="68.0" stroke="#9db4cf" stroke-width="1"/>
<line x1="334.0" y1="50.8" x2="336.5" y2="58.4" stroke="#9db4cf" stroke-width="1"/>
<line x1="360.5" y1="43.7" x2="362.2" y2="51.6" stroke="#9db4cf" stroke-width="1"/>
<line x1="387.6" y1="39.4" x2="388.4" y2="47.4" stroke="#9db4cf" stroke-width="1"/>
<text x="537.0" y="88.7" font-family="Heiti SC" font-size="20" fill="#bf8f00" text-anchor="middle" dominant-baseline="central">1</text>
<text x="626.3" y="178.0" font-family="Heiti SC" font-size="20" fill="#bf8f00" text-anchor="middle" dominant-baseline="central">2</text>
<text x="659.0" y="300.0" font-family="Heiti SC" font-size="20" fill="#bf8f00" text-anchor="middle" dominant-baseline="central">3</text>
<text x="626.3" y="422.0" font-family="Heiti SC" font-size="20" fill="#bf8f00" text-anchor="middle" dominant-baseline="central">4</text>
<text x="537.0" y="511.3" font-family="Heiti SC" font-size="20" fill="#bf8f00" text-anchor="middle" dominant-baseline="central">5</text>
<text x="415.0" y="544.0" font-family="Heiti SC" font-size="20" fill="#bf8f00" text-anchor="middle" dominant-baseline="central">6</text>
<text x="293.0" y="511.3" font-family="Heiti SC" font-size="20" fill="#bf8f00" text-anchor="middle" dominant-baseline="central">7</text>
<text x="203.7" y="422.0" font-family="Heiti SC" font-size="20" fill="#bf8f00" text-anchor="middle" dominant-baseline="central">8</text>
<text x="171.0" y="300.0" font-family="Heiti SC" font-size="20" fill="#bf8f00" text-anchor="middle" dominant-baseline="central">9</text>
<text x="203.7" y="178.0" font-family="Heiti SC" font-size="20" fill="#bf8f00" text-anchor="middle" dominant-baseline="central">10</text>
<text x="293.0" y="88.7" font-family="Heiti SC" font-size="20" fill="#bf8f00" text-anchor="middle" dominant-baseline="central">11</text>
<text x="415.0" y="56.0" font-family="Heiti SC" font-size="20" fill="#bf8f00" text-anchor="middle" dominant-baseline="central">12</text>
<text x="395" y="54" font-family="Heiti SC" font-size="16" fill="#808080" text-anchor="middle" dominant-baseline="central">格式调整</text>
<text x="392" y="98" font-family="Heiti SC" font-size="35" fill="#2e75b6" font-weight="bold" text-anchor="middle" dominant-baseline="central">接口文档</text>
<text x="345" y="145" font-family="Heiti SC" font-size="54" fill="#1f3a63" font-weight="bold" text-anchor="middle" dominant-baseline="central">重复事务</text>
<text x="205" y="148" font-family="Heiti SC" font-size="16" fill="#808080" text-anchor="middle" dominant-baseline="central">手工核对</text>
<text x="208" y="174" font-family="Heiti SC" font-size="16" fill="#1f3a63" text-anchor="middle" dominant-baseline="central">案例复盘</text>
<text x="600" y="156" font-family="Heiti SC" font-size="16" fill="#1f3a63" text-anchor="middle" dominant-baseline="central">接口耗时</text>
<text x="598" y="182" font-family="Heiti SC" font-size="16" fill="#2e75b6" text-anchor="middle" dominant-baseline="central">手工写设计</text>
<text x="248" y="200" font-family="Heiti SC" font-size="27" fill="#2e75b6" font-weight="bold" text-anchor="middle" dominant-baseline="central">接单分派</text>
<text x="378" y="199" font-family="Heiti SC" font-size="27" fill="#2e75b6" font-weight="bold" text-anchor="middle" dominant-baseline="central">接口成功率</text>
<text x="488" y="197" font-family="Heiti SC" font-size="21" fill="#1f3a63" text-anchor="middle" dominant-baseline="central">电话沟通</text>
<text x="580" y="202" font-family="Heiti SC" font-size="25" fill="#1f3a63" text-anchor="middle" dominant-baseline="central">处理邮件</text>
<text x="648" y="202" font-family="Heiti SC" font-size="18" fill="#1f3a63" text-anchor="middle" dominant-baseline="central">翻单</text>
<text x="240" y="226" font-family="Heiti SC" font-size="16" fill="#1f3a63" text-anchor="middle" dominant-baseline="central">测试case评审</text>
<text x="448" y="252" font-family="Heiti SC" font-size="84" fill="#1f3a63" font-weight="bold" text-anchor="middle" dominant-baseline="central">写代码</text>
<text x="612" y="262" font-family="Heiti SC" font-size="25" fill="#9dc3e6" text-anchor="middle" dominant-baseline="central">代码走查</text>
<text x="295" y="252" font-family="Heiti SC" font-size="19" fill="#1f3a63" text-anchor="middle" dominant-baseline="central">交融通</text>
<text x="248" y="270" font-family="Heiti SC" font-size="15" fill="#1f3a63" text-anchor="middle" dominant-baseline="central">翻文档查历史</text>
<text x="298" y="288" font-family="Heiti SC" font-size="23" fill="#2e75b6" text-anchor="middle" dominant-baseline="central">平台切换</text>
<text x="192" y="258" font-family="Heiti SC" font-size="37" fill="#2e75b6" font-weight="bold" text-anchor="middle" dominant-baseline="central" transform="rotate(-90 192 258)">生产监控</text>
<text x="165" y="308" font-family="Heiti SC" font-size="22" fill="#1f3a63" text-anchor="middle" dominant-baseline="central" transform="rotate(-90 165 308)">需规评审</text>
<text x="408" y="348" font-family="Heiti SC" font-size="70" fill="#1f3a63" font-weight="bold" text-anchor="middle" dominant-baseline="central">需求分析</text>
<text x="398" y="300" font-family="Heiti SC" font-size="12" fill="#2e75b6" text-anchor="middle" dominant-baseline="central">CMC</text>
<text x="392" y="432" font-family="Heiti SC" font-size="48" fill="#bf8f00" font-weight="bold" text-anchor="middle" dominant-baseline="central">被迫加班</text>
<text x="215" y="470" font-family="Heiti SC" font-size="16" fill="#1f3a63" text-anchor="middle" dominant-baseline="central">陌生模块</text>
<text x="410" y="505" font-family="Heiti SC" font-size="42" fill="#1f3a63" font-weight="bold" text-anchor="middle" dominant-baseline="central">单元测试</text>
<text x="552" y="484" font-family="Heiti SC" font-size="16" fill="#1f3a63" text-anchor="middle" dominant-baseline="central">容器状态</text>
<text x="415" y="535" font-family="Heiti SC" font-size="23" fill="#2e75b6" text-anchor="middle" dominant-baseline="central">信息切碎</text>
<line x1="415" y1="300" x2="445" y2="282" stroke="#bf8f00" stroke-width="2.5"/>
<line x1="415" y1="300" x2="411" y2="260" stroke="#bf8f00" stroke-width="2.5"/>
<circle cx="415" cy="300" r="5" fill="#bf8f00"/>
</svg>